<svg viewBox="0 0 128 128" version="1.1" id="SvgjsSvg1021" inkscape:version="1.1.2 (b8e25be833, 2022-02-05)" sodipodi:docname="shuttle-icon.svg" xmlns:inkscape="http://www.inkscape.org/namespaces/inkscape" xmlns:sodipodi="http://sodipodi.sourceforge.net/DTD/sodipodi-0.dtd" xmlns="http://www.w3.org/2000/svg" xmlns:svg="http://www.w3.org/2000/svg">
  <sodipodi:namedview id="SvgjsSodipodi:namedview1020" pagecolor="#ffffff" bordercolor="#666666" borderopacity="1.0" inkscape:pageshadow="2" inkscape:pageopacity="0.0" inkscape:pagecheckerboard="0" inkscape:document-units="px" showgrid="false" units="px" showguides="true" inkscape:guide-bbox="true" inkscape:zoom="1.578125" inkscape:cx="255.68317" inkscape:cy="256" inkscape:window-width="1920" inkscape:window-height="1017" inkscape:window-x="-8" inkscape:window-y="-8" inkscape:window-maximized="1" inkscape:current-layer="layer1">
    <sodipodi:guide position="67.733016,67.733647" orientation="1,0" id="SvgjsSodipodi:guide1019"></sodipodi:guide>
    <sodipodi:guide position="67.733016,67.733647" orientation="0,-1" id="SvgjsSodipodi:guide1018"></sodipodi:guide>
    <sodipodi:guide position="67.733014,101.6" orientation="0,-1" id="SvgjsSodipodi:guide1017"></sodipodi:guide>
    <sodipodi:guide position="67.733014,33.866667" orientation="0,-1" id="SvgjsSodipodi:guide1016"></sodipodi:guide>
    <sodipodi:guide position="67.733014,84.667978" orientation="0,-1" id="SvgjsSodipodi:guide1015"></sodipodi:guide>
    <sodipodi:guide position="67.733014,50.800001" orientation="0,-1" id="SvgjsSodipodi:guide1014"></sodipodi:guide>
    <sodipodi:guide position="46.567974,67.73365" orientation="1,0" id="SvgjsSodipodi:guide1013"></sodipodi:guide>
    <sodipodi:guide position="88.899996,67.73365" orientation="1,0" id="SvgjsSodipodi:guide1012"></sodipodi:guide>
    <sodipodi:guide position="101.60026,67.73365" orientation="1,0" id="SvgjsSodipodi:guide1011"></sodipodi:guide>
    <sodipodi:guide position="33.866752,67.73365" orientation="1,0" id="SvgjsSodipodi:guide1010"></sodipodi:guide>
    <sodipodi:guide position="67.733016,29.633333" orientation="0,-1" id="SvgjsSodipodi:guide1009"></sodipodi:guide>
    <sodipodi:guide position="76.039604,28" orientation="1,0" id="SvgjsSodipodi:guide1008"></sodipodi:guide>
    <sodipodi:guide position="48,28" orientation="1,0" id="SvgjsSodipodi:guide1007"></sodipodi:guide>
    <sodipodi:guide position="52,28" orientation="1,0" id="SvgjsSodipodi:guide1006"></sodipodi:guide>
    <sodipodi:guide position="72.990099,24" orientation="0,-1" id="SvgjsSodipodi:guide1005"></sodipodi:guide>
  </sodipodi:namedview>
  <defs id="SvgjsDefs1004">
    <inkscape:path-effect effect="bspline" id="SvgjsInkscape:path-effect1003" is_visible="true" lpeversion="1" weight="33.333333" steps="2" helper_size="0" apply_no_weight="true" apply_with_weight="true" only_selected="false"></inkscape:path-effect>
  </defs>
  <g inkscape:label="logo" inkscape:groupmode="layer" id="SvgjsG1002">
    <path id="SvgjsPath1001" style="fill:#ff6600;fill-opacity:1;stroke:none;stroke-width:0.240053px;stroke-linecap:butt;stroke-linejoin:miter;stroke-opacity:1" d="M 63.634766,0.1953125 C 57.844594,6.4132088 51.840077,12.590384 47.535767,19.978287 c -2.560443,4.336274 -4.158238,9.242134 -4.510065,14.273549 -0.550966,7.029337 0.727665,14.022022 1.941095,20.916133 -4.858822,4.334438 -9.92624,8.786987 -12.855484,14.723103 -2.272334,4.46951 -2.701913,9.613857 -2.308105,14.543653 0.600177,7.64328 2.618824,15.073402 4.427261,22.496915 3.632442,-6.21215 6.677126,-12.770787 10.685187,-18.760728 1.769845,-2.685485 3.964019,-5.143297 6.746258,-6.807174 3.716478,-2.319879 8.028041,-3.624636 12.338086,-4.0278 5.619423,0.536704 11.332237,2.579469 15.548078,6.489818 3.202016,3.191031 5.394871,7.206414 7.618441,11.098965 2.21066,3.997625 4.319807,8.050309 6.603012,12.006919 1.926575,-7.94752 4.134019,-15.916131 4.521485,-24.124999 0.212512,-4.579798 -0.449202,-9.293948 -2.635259,-13.37566 C 92.689793,63.715319 87.76715,59.392989 83.033203,55.167969 84.402191,47.369086 85.881541,39.374729 84.640877,31.455077 83.743096,25.329134 80.722495,19.757575 77.089181,14.833089 73.146128,9.4716221 68.537892,4.6555161 64,-0.1953125 Z m 0.466796,24.4980465 c 3.144908,-1.77e-4 5.891598,2.556254 6.550782,5.615235 0.863805,3.432713 -0.885473,7.453674 -4.244141,8.791015 -2.646131,1.135997 -5.906398,0.153954 -7.617187,-2.126953 -2.537816,-3.117211 -2.100579,-8.199759 1.042322,-10.748769 1.181701,-0.995642 2.720597,-1.557126 4.268224,-1.530528 z" sodipodi:nodetypes="cccccccccccccccccccccccccc"></path>
    <path id="SvgjsPath1000" style="fill:#ff6600" d="m 64.139235,127.95929 c 0,0 -12.139235,-23.95929 -12.135988,-31.962569 0.0027,-6.572825 5.009108,-11.759876 11.577934,-11.989121 6.568826,-0.229245 12.458423,5.444329 12.458423,11.992399 0,7.976611 -11.900369,31.959291 -11.900369,31.959291 z" sodipodi:nodetypes="csscc"></path>
  </g>
</svg>